<?xml version="1.0" encoding="UTF-8" standalone="no"?><svg xmlns="http://www.w3.org/2000/svg" xmlns:xlink="http://www.w3.org/1999/xlink" clip-rule="evenodd" stroke-miterlimit="10" viewBox="0 0 1024 768"><desc>SVG generated by Keynote</desc><defs></defs><g transform="matrix(1.00, 0.00, -0.00, -1.00, 0.0, 768.0)"><path d="M 0.0 768.0 L 1024.0 768.0 L 1024.0 0.0 L 0.0 0.0 Z M 0.0 768.0 " fill="#FEFFFF"></path><g><clipPath id="clip0x6000012b0680"><path d="M 50.0 718.0 L 962.2 718.0 L 962.2 248.2 L 50.0 248.2 Z M 50.0 718.0 "></path></clipPath><g clip-path="url(#clip0x6000012b0680)"><path d="M 50.0 718.0 L 962.2 718.0 L 962.2 608.6 L 50.0 608.6 Z M 50.0 718.0 " fill="#FEFFFF"></path><path d="M 50.0 608.6 L 962.2 608.6 L 962.2 499.3 L 50.0 499.3 Z M 50.0 608.6 " fill="#DCDDE0" fill-opacity="0.23"></path></g></g><g><clipPath id="clip0x6000012b1760"><path d="M 50.0 718.0 L 962.2 718.0 L 962.2 248.2 L 50.0 248.2 Z M 50.0 718.0 "></path></clipPath><g clip-path="url(#clip0x6000012b1760)"><g><clipPath id="clip0x600001ea1260"><path d="M 50.0 608.6 L 962.2 608.6 L 962.2 718.0 L 50.0 718.0 Z M 50.0 608.6 "></path></clipPath><g clip-path="url(#clip0x600001ea1260)"><text xml:space="preserve" font-family="Helvetica-Bold,Helvetica" font-weight="bold" font-size="18.0" fill="#52575F" transform="matrix(1.00, 0.00, -0.00, -1.00, 54.0, 696.1)">1</text><text xml:space="preserve" font-family="Helvetica-Bold,Helvetica" font-weight="bold" font-size="18.0" fill="#52575F" transform="matrix(1.00, 0.00, -0.00, -1.00, 64.0, 696.1)">.</text><text xml:space="preserve" font-family="Helvetica-Bold,Helvetica" font-weight="bold" font-size="18.0" fill="#52575F" transform="matrix(1.00, 0.00, -0.00, -1.00, 72.0, 696.1)">C</text><text xml:space="preserve" font-family="Helvetica-Bold,Helvetica" font-weight="bold" font-size="18.0" fill="#52575F" transform="matrix(1.00, 0.00, -0.00, -1.00, 85.0, 696.1)">r</text><text xml:space="preserve" font-family="Helvetica-Bold,Helvetica" font-weight="bold" font-size="18.0" fill="#52575F" transform="matrix(1.00, 0.00, -0.00, -1.00, 92.0, 696.1)">e</text><text xml:space="preserve" font-family="Helvetica-Bold,Helvetica" font-weight="bold" font-size="18.0" fill="#52575F" transform="matrix(1.00, 0.00, -0.00, -1.00, 102.0, 696.1)">a</text><text xml:space="preserve" font-family="Helvetica-Bold,Helvetica" font-weight="bold" font-size="18.0" fill="#52575F" transform="matrix(1.00, 0.00, -0.00, -1.00, 112.0, 696.1)">t</text><text xml:space="preserve" font-family="Helvetica-Bold,Helvetica" font-weight="bold" font-size="18.0" fill="#52575F" transform="matrix(1.00, 0.00, -0.00, -1.00, 118.0, 696.1)">e</text><text xml:space="preserve" font-family="Helvetica-Bold,Helvetica" font-weight="bold" font-size="18.0" fill="#52575F" transform="matrix(1.00, 0.00, -0.00, -1.00, 128.0, 696.1)"> </text><text xml:space="preserve" font-family="Helvetica-Bold,Helvetica" font-weight="bold" font-size="18.0" fill="#52575F" transform="matrix(1.00, 0.00, -0.00, -1.00, 133.0, 696.1)">a</text><text xml:space="preserve" font-family="Helvetica-Bold,Helvetica" font-weight="bold" font-size="18.0" fill="#52575F" transform="matrix(1.00, 0.00, -0.00, -1.00, 143.1, 696.1)">p</text><text xml:space="preserve" font-family="Helvetica-Bold,Helvetica" font-weight="bold" font-size="18.0" fill="#52575F" transform="matrix(1.00, 0.00, -0.00, -1.00, 154.1, 696.1)">p</text><text xml:space="preserve" font-family="Helvetica-Bold,Helvetica" font-weight="bold" font-size="18.0" fill="#A6AAA8" transform="matrix(1.00, 0.00, -0.00, -1.00, 89.0, 674.1)">a</text><text xml:space="preserve" font-family="Helvetica-Bold,Helvetica" font-weight="bold" font-size="18.0" fill="#A6AAA8" transform="matrix(1.00, 0.00, -0.00, -1.00, 99.0, 674.1)">.</text><text xml:space="preserve" font-family="Helvetica-Bold,Helvetica" font-weight="bold" font-size="18.0" fill="#A6AAA8" transform="matrix(1.00, 0.00, -0.00, -1.00, 107.0, 674.1)">c</text><text xml:space="preserve" font-family="Helvetica-Bold,Helvetica" font-weight="bold" font-size="18.0" fill="#A6AAA8" transform="matrix(1.00, 0.00, -0.00, -1.00, 117.0, 674.1)">r</text><text xml:space="preserve" font-family="Helvetica-Bold,Helvetica" font-weight="bold" font-size="18.0" fill="#A6AAA8" transform="matrix(1.00, 0.00, -0.00, -1.00, 124.0, 674.1)">e</text><text xml:space="preserve" font-family="Helvetica-Bold,Helvetica" font-weight="bold" font-size="18.0" fill="#A6AAA8" transform="matrix(1.00, 0.00, -0.00, -1.00, 134.0, 674.1)">a</text><text xml:space="preserve" font-family="Helvetica-Bold,Helvetica" font-weight="bold" font-size="18.0" fill="#A6AAA8" transform="matrix(1.00, 0.00, -0.00, -1.00, 144.1, 674.1)">t</text><text xml:space="preserve" font-family="Helvetica-Bold,Helvetica" font-weight="bold" font-size="18.0" fill="#A6AAA8" transform="matrix(1.00, 0.00, -0.00, -1.00, 150.0, 674.1)">e</text><text xml:space="preserve" font-family="Helvetica-Bold,Helvetica" font-weight="bold" font-size="18.0" fill="#A6AAA8" transform="matrix(1.00, 0.00, -0.00, -1.00, 160.1, 674.1)"> </text><text xml:space="preserve" font-family="Helvetica-Bold,Helvetica" font-weight="bold" font-size="18.0" fill="#A6AAA8" transform="matrix(1.00, 0.00, -0.00, -1.00, 165.1, 674.1)">a</text><text xml:space="preserve" font-family="Helvetica-Bold,Helvetica" font-weight="bold" font-size="18.0" fill="#A6AAA8" transform="matrix(1.00, 0.00, -0.00, -1.00, 175.1, 674.1)">p</text><text xml:space="preserve" font-family="Helvetica-Bold,Helvetica" font-weight="bold" font-size="18.0" fill="#A6AAA8" transform="matrix(1.00, 0.00, -0.00, -1.00, 186.1, 674.1)">p</text><text xml:space="preserve" font-family="Helvetica-Bold,Helvetica" font-weight="bold" font-size="18.0" fill="#A6AAA8" transform="matrix(1.00, 0.00, -0.00, -1.00, 197.1, 674.1)"> </text><text xml:space="preserve" font-family="Helvetica-Bold,Helvetica" font-weight="bold" font-size="18.0" fill="#A6AAA8" transform="matrix(1.00, 0.00, -0.00, -1.00, 202.1, 674.1)">c</text><text xml:space="preserve" font-family="Helvetica-Bold,Helvetica" font-weight="bold" font-size="18.0" fill="#A6AAA8" transform="matrix(1.00, 0.00, -0.00, -1.00, 212.1, 674.1)">o</text><text xml:space="preserve" font-family="Helvetica-Bold,Helvetica" font-weight="bold" font-size="18.0" fill="#A6AAA8" transform="matrix(1.00, 0.00, -0.00, -1.00, 223.1, 674.1)">n</text><text xml:space="preserve" font-family="Helvetica-Bold,Helvetica" font-weight="bold" font-size="18.0" fill="#A6AAA8" transform="matrix(1.00, 0.00, -0.00, -1.00, 234.0, 674.1)">t</text><text xml:space="preserve" font-family="Helvetica-Bold,Helvetica" font-weight="bold" font-size="18.0" fill="#A6AAA8" transform="matrix(1.00, 0.00, -0.00, -1.00, 240.0, 674.1)">a</text><text xml:space="preserve" font-family="Helvetica-Bold,Helvetica" font-weight="bold" font-size="18.0" fill="#A6AAA8" transform="matrix(1.00, 0.00, -0.00, -1.00, 250.1, 674.1)">i</text><text xml:space="preserve" font-family="Helvetica-Bold,Helvetica" font-weight="bold" font-size="18.0" fill="#A6AAA8" transform="matrix(1.00, 0.00, -0.00, -1.00, 255.1, 674.1)">n</text><text xml:space="preserve" font-family="Helvetica-Bold,Helvetica" font-weight="bold" font-size="18.0" fill="#A6AAA8" transform="matrix(1.00, 0.00, -0.00, -1.00, 266.0, 674.1)">e</text><text xml:space="preserve" font-family="Helvetica-Bold,Helvetica" font-weight="bold" font-size="18.0" fill="#A6AAA8" transform="matrix(1.00, 0.00, -0.00, -1.00, 276.1, 674.1)">r</text></g></g></g></g><g><clipPath id="clip0x600001ea21c0"><path d="M 50.0 718.0 L 962.2 718.0 L 962.2 248.2 L 50.0 248.2 Z M 50.0 718.0 "></path></clipPath><g clip-path="url(#clip0x600001ea21c0)"><g><clipPath id="clip0x6000020a2580"><path d="M 50.0 499.3 L 962.2 499.3 L 962.2 608.6 L 50.0 608.6 Z M 50.0 499.3 "></path></clipPath><g clip-path="url(#clip0x6000020a2580)"><path d="M 54.0 590.6 L 241.8 590.6 L 241.8 576.6 L 54.0 576.6 Z M 54.0 590.6 " fill="#000000" fill-opacity="0.00"></path><path d="M 54.0 576.6 L 104.6 576.6 L 104.6 562.6 L 54.0 562.6 Z M 54.0 576.6 " fill="#000000" fill-opacity="0.00"></path><text xml:space="preserve" font-family="Helvetica,Helvetica" font-size="12.0" fill="#000000" transform="matrix(1.00, 0.00, -0.00, -1.00, 54.0, 593.4)"> </text><text xml:space="preserve" font-family="Menlo-Regular,Menlo" font-size="12.0" fill="#000000" transform="matrix(1.00, 0.00, -0.00, -1.00, 54.0, 579.5)">&lt;</text><text xml:space="preserve" font-family="Menlo-Bold,Menlo" font-weight="bold" font-size="12.0" fill="#011892" transform="matrix(1.00, 0.00, -0.00, -1.00, 61.2, 579.5)">b</text><text xml:space="preserve" font-family="Menlo-Bold,Menlo" font-weight="bold" font-size="12.0" fill="#011892" transform="matrix(1.00, 0.00, -0.00, -1.00, 68.5, 579.5)">o</text><text xml:space="preserve" font-family="Menlo-Bold,Menlo" font-weight="bold" font-size="12.0" fill="#011892" transform="matrix(1.00, 0.00, -0.00, -1.00, 75.7, 579.5)">d</text><text xml:space="preserve" font-family="Menlo-Bold,Menlo" font-weight="bold" font-size="12.0" fill="#011892" transform="matrix(1.00, 0.00, -0.00, -1.00, 82.9, 579.5)">y</text><text xml:space="preserve" font-family="Menlo-Bold,Menlo" font-weight="bold" font-size="12.0" fill="#011892" transform="matrix(1.00, 0.00, -0.00, -1.00, 90.1, 579.5)"> </text><text xml:space="preserve" font-family="Menlo-Bold,Menlo" font-weight="bold" font-size="12.0" fill="#0432FF" transform="matrix(1.00, 0.00, -0.00, -1.00, 97.3, 579.5)">n</text><text xml:space="preserve" font-family="Menlo-Bold,Menlo" font-weight="bold" font-size="12.0" fill="#0432FF" transform="matrix(1.00, 0.00, -0.00, -1.00, 104.6, 579.5)">g</text><text xml:space="preserve" font-family="Menlo-Bold,Menlo" font-weight="bold" font-size="12.0" fill="#0432FF" transform="matrix(1.00, 0.00, -0.00, -1.00, 111.8, 579.5)">-</text><text xml:space="preserve" font-family="Menlo-Bold,Menlo" font-weight="bold" font-size="12.0" fill="#0432FF" transform="matrix(1.00, 0.00, -0.00, -1.00, 119.0, 579.5)">a</text><text xml:space="preserve" font-family="Menlo-Bold,Menlo" font-weight="bold" font-size="12.0" fill="#0432FF" transform="matrix(1.00, 0.00, -0.00, -1.00, 126.3, 579.5)">p</text><text xml:space="preserve" font-family="Menlo-Bold,Menlo" font-weight="bold" font-size="12.0" fill="#0432FF" transform="matrix(1.00, 0.00, -0.00, -1.00, 133.5, 579.5)">p</text><text xml:space="preserve" font-family="Menlo-Bold,Menlo" font-weight="bold" font-size="12.0" fill="#0432FF" transform="matrix(1.00, 0.00, -0.00, -1.00, 140.7, 579.5)">=</text><text xml:space="preserve" font-family="Menlo-Bold,Menlo" font-weight="bold" font-size="12.0" fill="#008E00" transform="matrix(1.00, 0.00, -0.00, -1.00, 147.9, 579.5)">"</text><text xml:space="preserve" font-family="Menlo-Bold,Menlo" font-weight="bold" font-size="12.0" fill="#008E00" transform="matrix(1.00, 0.00, -0.00, -1.00, 155.1, 579.5)">m</text><text xml:space="preserve" font-family="Menlo-Bold,Menlo" font-weight="bold" font-size="12.0" fill="#008E00" transform="matrix(1.00, 0.00, -0.00, -1.00, 162.4, 579.5)">y</text><text xml:space="preserve" font-family="Menlo-Bold,Menlo" font-weight="bold" font-size="12.0" fill="#008E00" transform="matrix(1.00, 0.00, -0.00, -1.00, 169.6, 579.5)">f</text><text xml:space="preserve" font-family="Menlo-Bold,Menlo" font-weight="bold" font-size="12.0" fill="#008E00" transform="matrix(1.00, 0.00, -0.00, -1.00, 176.8, 579.5)">i</text><text xml:space="preserve" font-family="Menlo-Bold,Menlo" font-weight="bold" font-size="12.0" fill="#008E00" transform="matrix(1.00, 0.00, -0.00, -1.00, 184.0, 579.5)">r</text><text xml:space="preserve" font-family="Menlo-Bold,Menlo" font-weight="bold" font-size="12.0" fill="#008E00" transform="matrix(1.00, 0.00, -0.00, -1.00, 191.3, 579.5)">s</text><text xml:space="preserve" font-family="Menlo-Bold,Menlo" font-weight="bold" font-size="12.0" fill="#008E00" transform="matrix(1.00, 0.00, -0.00, -1.00, 198.5, 579.5)">t</text><text xml:space="preserve" font-family="Menlo-Bold,Menlo" font-weight="bold" font-size="12.0" fill="#008E00" transform="matrix(1.00, 0.00, -0.00, -1.00, 205.7, 579.5)">a</text><text xml:space="preserve" font-family="Menlo-Bold,Menlo" font-weight="bold" font-size="12.0" fill="#008E00" transform="matrix(1.00, 0.00, -0.00, -1.00, 213.0, 579.5)">p</text><text xml:space="preserve" font-family="Menlo-Bold,Menlo" font-weight="bold" font-size="12.0" fill="#008E00" transform="matrix(1.00, 0.00, -0.00, -1.00, 220.2, 579.5)">p</text><text xml:space="preserve" font-family="Menlo-Bold,Menlo" font-weight="bold" font-size="12.0" fill="#008E00" transform="matrix(1.00, 0.00, -0.00, -1.00, 227.4, 579.5)">"</text><text xml:space="preserve" font-family="Menlo-Regular,Menlo" font-size="12.0" fill="#000000" transform="matrix(1.00, 0.00, -0.00, -1.00, 234.6, 579.5)">&gt;</text><text xml:space="preserve" font-family="Monaco,Monaco" font-size="12.0" fill="#000000" transform="matrix(1.00, 0.00, -0.00, -1.00, 241.8, 579.5)"> </text><text xml:space="preserve" font-family="Menlo-Regular,Menlo" font-size="12.0" fill="#000000" transform="matrix(1.00, 0.00, -0.00, -1.00, 54.0, 565.5)">&lt;</text><text xml:space="preserve" font-family="Menlo-Regular,Menlo" font-size="12.0" fill="#000000" transform="matrix(1.00, 0.00, -0.00, -1.00, 61.2, 565.5)">/</text><text xml:space="preserve" font-family="Menlo-Bold,Menlo" font-weight="bold" font-size="12.0" fill="#011892" transform="matrix(1.00, 0.00, -0.00, -1.00, 68.4, 565.5)">b</text><text xml:space="preserve" font-family="Menlo-Bold,Menlo" font-weight="bold" font-size="12.0" fill="#011892" transform="matrix(1.00, 0.00, -0.00, -1.00, 75.7, 565.5)">o</text><text xml:space="preserve" font-family="Menlo-Bold,Menlo" font-weight="bold" font-size="12.0" fill="#011892" transform="matrix(1.00, 0.00, -0.00, -1.00, 82.9, 565.5)">d</text><text xml:space="preserve" font-family="Menlo-Bold,Menlo" font-weight="bold" font-size="12.0" fill="#011892" transform="matrix(1.00, 0.00, -0.00, -1.00, 90.1, 565.5)">y</text><text xml:space="preserve" font-family="Menlo-Regular,Menlo" font-size="12.0" fill="#000000" transform="matrix(1.00, 0.00, -0.00, -1.00, 97.3, 565.5)">&gt;</text><text xml:space="preserve" font-family="Monaco,Monaco" font-size="12.0" fill="#000000" transform="matrix(1.00, 0.00, -0.00, -1.00, 104.6, 565.5)"> </text></g></g></g></g><g><clipPath id="clip0x6000020a2a00"><path d="M 50.0 718.0 L 962.2 718.0 L 962.2 248.2 L 50.0 248.2 Z M 50.0 718.0 "></path></clipPath><g clip-path="url(#clip0x6000020a2a00)"><g><clipPath id="clip0x6000012b1220"><path d="M 50.0 248.2 L 962.2 248.2 L 962.2 447.3 L 50.0 447.3 Z M 50.0 248.2 "></path></clipPath><g clip-path="url(#clip0x6000012b1220)"><text xml:space="preserve" font-family="Helvetica-Bold,Helvetica" font-weight="bold" font-size="18.0" fill="#52575F" transform="matrix(1.00, 0.00, -0.00, -1.00, 54.0, 425.4)">H</text><text xml:space="preserve" font-family="Helvetica-Bold,Helvetica" font-weight="bold" font-size="18.0" fill="#52575F" transform="matrix(1.00, 0.00, -0.00, -1.00, 67.0, 425.4)">o</text><text xml:space="preserve" font-family="Helvetica-Bold,Helvetica" font-weight="bold" font-size="18.0" fill="#52575F" transform="matrix(1.00, 0.00, -0.00, -1.00, 78.0, 425.4)">w</text><text xml:space="preserve" font-family="Helvetica-Bold,Helvetica" font-weight="bold" font-size="18.0" fill="#52575F" transform="matrix(1.00, 0.00, -0.00, -1.00, 92.0, 425.4)"> </text><text xml:space="preserve" font-family="Helvetica-Bold,Helvetica" font-weight="bold" font-size="18.0" fill="#52575F" transform="matrix(1.00, 0.00, -0.00, -1.00, 97.0, 425.4)">t</text><text xml:space="preserve" font-family="Helvetica-Bold,Helvetica" font-weight="bold" font-size="18.0" fill="#52575F" transform="matrix(1.00, 0.00, -0.00, -1.00, 103.0, 425.4)">h</text><text xml:space="preserve" font-family="Helvetica-Bold,Helvetica" font-weight="bold" font-size="18.0" fill="#52575F" transform="matrix(1.00, 0.00, -0.00, -1.00, 114.0, 425.4)">i</text><text xml:space="preserve" font-family="Helvetica-Bold,Helvetica" font-weight="bold" font-size="18.0" fill="#52575F" transform="matrix(1.00, 0.00, -0.00, -1.00, 119.0, 425.4)">s</text><text xml:space="preserve" font-family="Helvetica-Bold,Helvetica" font-weight="bold" font-size="18.0" fill="#52575F" transform="matrix(1.00, 0.00, -0.00, -1.00, 129.0, 425.4)"> </text><text xml:space="preserve" font-family="Helvetica-Bold,Helvetica" font-weight="bold" font-size="18.0" fill="#52575F" transform="matrix(1.00, 0.00, -0.00, -1.00, 134.0, 425.4)">w</text><text xml:space="preserve" font-family="Helvetica-Bold,Helvetica" font-weight="bold" font-size="18.0" fill="#52575F" transform="matrix(1.00, 0.00, -0.00, -1.00, 148.0, 425.4)">o</text><text xml:space="preserve" font-family="Helvetica-Bold,Helvetica" font-weight="bold" font-size="18.0" fill="#52575F" transform="matrix(1.00, 0.00, -0.00, -1.00, 159.0, 425.4)">r</text><text xml:space="preserve" font-family="Helvetica-Bold,Helvetica" font-weight="bold" font-size="18.0" fill="#52575F" transform="matrix(1.00, 0.00, -0.00, -1.00, 166.0, 425.4)">k</text><text xml:space="preserve" font-family="Helvetica-Bold,Helvetica" font-weight="bold" font-size="18.0" fill="#52575F" transform="matrix(1.00, 0.00, -0.00, -1.00, 176.0, 425.4)">s</text><text xml:space="preserve" font-family="LucidaGrande-Bold,Lucida Grande" font-weight="bold" font-size="12.0" fill="#A6AAA8" transform="matrix(1.00, 0.00, -0.00, -1.00, 72.0, 408.8)">-</text><text xml:space="preserve" font-family="LucidaGrande-Bold,Lucida Grande" font-weight="bold" font-size="12.0" fill="#A6AAA8" transform="matrix(1.00, 0.00, -0.00, -1.00, 90.0, 408.8)">a</text><text xml:space="preserve" font-family="LucidaGrande-Bold,Lucida Grande" font-weight="bold" font-size="12.0" fill="#A6AAA8" transform="matrix(1.00, 0.00, -0.00, -1.00, 97.1, 408.8)">n</text><text xml:space="preserve" font-family="LucidaGrande-Bold,Lucida Grande" font-weight="bold" font-size="12.0" fill="#A6AAA8" transform="matrix(1.00, 0.00, -0.00, -1.00, 104.9, 408.8)">g</text><text xml:space="preserve" font-family="LucidaGrande-Bold,Lucida Grande" font-weight="bold" font-size="12.0" fill="#A6AAA8" transform="matrix(1.00, 0.00, -0.00, -1.00, 112.8, 408.8)">u</text><text xml:space="preserve" font-family="LucidaGrande-Bold,Lucida Grande" font-weight="bold" font-size="12.0" fill="#A6AAA8" transform="matrix(1.00, 0.00, -0.00, -1.00, 120.7, 408.8)">l</text><text xml:space="preserve" font-family="LucidaGrande-Bold,Lucida Grande" font-weight="bold" font-size="12.0" fill="#A6AAA8" transform="matrix(1.00, 0.00, -0.00, -1.00, 124.6, 408.8)">a</text><text xml:space="preserve" font-family="LucidaGrande-Bold,Lucida Grande" font-weight="bold" font-size="12.0" fill="#A6AAA8" transform="matrix(1.00, 0.00, -0.00, -1.00, 131.7, 408.8)">r</text><text xml:space="preserve" font-family="LucidaGrande-Bold,Lucida Grande" font-weight="bold" font-size="12.0" fill="#A6AAA8" transform="matrix(1.00, 0.00, -0.00, -1.00, 137.1, 408.8)"> </text><text xml:space="preserve" font-family="LucidaGrande-Bold,Lucida Grande" font-weight="bold" font-size="12.0" fill="#A6AAA8" transform="matrix(1.00, 0.00, -0.00, -1.00, 141.1, 408.8)">r</text><text xml:space="preserve" font-family="LucidaGrande-Bold,Lucida Grande" font-weight="bold" font-size="12.0" fill="#A6AAA8" transform="matrix(1.00, 0.00, -0.00, -1.00, 146.5, 408.8)">e</text><text xml:space="preserve" font-family="LucidaGrande-Bold,Lucida Grande" font-weight="bold" font-size="12.0" fill="#A6AAA8" transform="matrix(1.00, 0.00, -0.00, -1.00, 153.6, 408.8)">a</text><text xml:space="preserve" font-family="LucidaGrande-Bold,Lucida Grande" font-weight="bold" font-size="12.0" fill="#A6AAA8" transform="matrix(1.00, 0.00, -0.00, -1.00, 160.6, 408.8)">d</text><text xml:space="preserve" font-family="LucidaGrande-Bold,Lucida Grande" font-weight="bold" font-size="12.0" fill="#A6AAA8" transform="matrix(1.00, 0.00, -0.00, -1.00, 168.6, 408.8)">s</text><text xml:space="preserve" font-family="LucidaGrande-Bold,Lucida Grande" font-weight="bold" font-size="12.0" fill="#A6AAA8" transform="matrix(1.00, 0.00, -0.00, -1.00, 175.4, 408.8)"> </text><text xml:space="preserve" font-family="LucidaGrande-Bold,Lucida Grande" font-weight="bold" font-size="12.0" fill="#A6AAA8" transform="matrix(1.00, 0.00, -0.00, -1.00, 179.3, 408.8)">i</text><text xml:space="preserve" font-family="LucidaGrande-Bold,Lucida Grande" font-weight="bold" font-size="12.0" fill="#A6AAA8" transform="matrix(1.00, 0.00, -0.00, -1.00, 183.2, 408.8)">n</text><text xml:space="preserve" font-family="LucidaGrande-Bold,Lucida Grande" font-weight="bold" font-size="12.0" fill="#A6AAA8" transform="matrix(1.00, 0.00, -0.00, -1.00, 191.1, 408.8)">s</text><text xml:space="preserve" font-family="LucidaGrande-Bold,Lucida Grande" font-weight="bold" font-size="12.0" fill="#A6AAA8" transform="matrix(1.00, 0.00, -0.00, -1.00, 197.9, 408.8)">i</text><text xml:space="preserve" font-family="LucidaGrande-Bold,Lucida Grande" font-weight="bold" font-size="12.0" fill="#A6AAA8" transform="matrix(1.00, 0.00, -0.00, -1.00, 201.8, 408.8)">d</text><text xml:space="preserve" font-family="LucidaGrande-Bold,Lucida Grande" font-weight="bold" font-size="12.0" fill="#A6AAA8" transform="matrix(1.00, 0.00, -0.00, -1.00, 209.8, 408.8)">e</text><text xml:space="preserve" font-family="LucidaGrande-Bold,Lucida Grande" font-weight="bold" font-size="12.0" fill="#A6AAA8" transform="matrix(1.00, 0.00, -0.00, -1.00, 216.8, 408.8)"> </text><text xml:space="preserve" font-family="LucidaGrande-Bold,Lucida Grande" font-weight="bold" font-size="12.0" fill="#A6AAA8" transform="matrix(1.00, 0.00, -0.00, -1.00, 220.7, 408.8)">t</text><text xml:space="preserve" font-family="LucidaGrande-Bold,Lucida Grande" font-weight="bold" font-size="12.0" fill="#A6AAA8" transform="matrix(1.00, 0.00, -0.00, -1.00, 225.6, 408.8)">h</text><text xml:space="preserve" font-family="LucidaGrande-Bold,Lucida Grande" font-weight="bold" font-size="12.0" fill="#A6AAA8" transform="matrix(1.00, 0.00, -0.00, -1.00, 233.5, 408.8)">i</text><text xml:space="preserve" font-family="LucidaGrande-Bold,Lucida Grande" font-weight="bold" font-size="12.0" fill="#A6AAA8" transform="matrix(1.00, 0.00, -0.00, -1.00, 237.4, 408.8)">s</text><text xml:space="preserve" font-family="LucidaGrande-Bold,Lucida Grande" font-weight="bold" font-size="12.0" fill="#A6AAA8" transform="matrix(1.00, 0.00, -0.00, -1.00, 244.2, 408.8)"> </text><text xml:space="preserve" font-family="LucidaGrande-Bold,Lucida Grande" font-weight="bold" font-size="12.0" fill="#A6AAA8" transform="matrix(1.00, 0.00, -0.00, -1.00, 248.1, 408.8)">c</text><text xml:space="preserve" font-family="LucidaGrande-Bold,Lucida Grande" font-weight="bold" font-size="12.0" fill="#A6AAA8" transform="matrix(1.00, 0.00, -0.00, -1.00, 254.5, 408.8)">o</text><text xml:space="preserve" font-family="LucidaGrande-Bold,Lucida Grande" font-weight="bold" font-size="12.0" fill="#A6AAA8" transform="matrix(1.00, 0.00, -0.00, -1.00, 262.2, 408.8)">n</text><text xml:space="preserve" font-family="LucidaGrande-Bold,Lucida Grande" font-weight="bold" font-size="12.0" fill="#A6AAA8" transform="matrix(1.00, 0.00, -0.00, -1.00, 270.1, 408.8)">t</text><text xml:space="preserve" font-family="LucidaGrande-Bold,Lucida Grande" font-weight="bold" font-size="12.0" fill="#A6AAA8" transform="matrix(1.00, 0.00, -0.00, -1.00, 274.9, 408.8)">a</text><text xml:space="preserve" font-family="LucidaGrande-Bold,Lucida Grande" font-weight="bold" font-size="12.0" fill="#A6AAA8" transform="matrix(1.00, 0.00, -0.00, -1.00, 282.0, 408.8)">i</text><text xml:space="preserve" font-family="LucidaGrande-Bold,Lucida Grande" font-weight="bold" font-size="12.0" fill="#A6AAA8" transform="matrix(1.00, 0.00, -0.00, -1.00, 285.9, 408.8)">n</text><text xml:space="preserve" font-family="LucidaGrande-Bold,Lucida Grande" font-weight="bold" font-size="12.0" fill="#A6AAA8" transform="matrix(1.00, 0.00, -0.00, -1.00, 293.8, 408.8)">e</text><text xml:space="preserve" font-family="LucidaGrande-Bold,Lucida Grande" font-weight="bold" font-size="12.0" fill="#A6AAA8" transform="matrix(1.00, 0.00, -0.00, -1.00, 300.8, 408.8)">r</text><text xml:space="preserve" font-family="LucidaGrande-Bold,Lucida Grande" font-weight="bold" font-size="12.0" fill="#A6AAA8" transform="matrix(1.00, 0.00, -0.00, -1.00, 306.2, 408.8)">,</text><text xml:space="preserve" font-family="LucidaGrande-Bold,Lucida Grande" font-weight="bold" font-size="12.0" fill="#A6AAA8" transform="matrix(1.00, 0.00, -0.00, -1.00, 309.2, 408.8)"> </text><text xml:space="preserve" font-family="LucidaGrande-Bold,Lucida Grande" font-weight="bold" font-size="12.0" fill="#A6AAA8" transform="matrix(1.00, 0.00, -0.00, -1.00, 72.0, 393.8)">-</text><text xml:space="preserve" font-family="LucidaGrande-Bold,Lucida Grande" font-weight="bold" font-size="12.0" fill="#A6AAA8" transform="matrix(1.00, 0.00, -0.00, -1.00, 90.0, 393.8)">s</text><text xml:space="preserve" font-family="LucidaGrande-Bold,Lucida Grande" font-weight="bold" font-size="12.0" fill="#A6AAA8" transform="matrix(1.00, 0.00, -0.00, -1.00, 96.8, 393.8)">c</text><text xml:space="preserve" font-family="LucidaGrande-Bold,Lucida Grande" font-weight="bold" font-size="12.0" fill="#A6AAA8" transform="matrix(1.00, 0.00, -0.00, -1.00, 103.2, 393.8)">a</text><text xml:space="preserve" font-family="LucidaGrande-Bold,Lucida Grande" font-weight="bold" font-size="12.0" fill="#A6AAA8" transform="matrix(1.00, 0.00, -0.00, -1.00, 110.2, 393.8)">n</text><text xml:space="preserve" font-family="LucidaGrande-Bold,Lucida Grande" font-weight="bold" font-size="12.0" fill="#A6AAA8" transform="matrix(1.00, 0.00, -0.00, -1.00, 118.1, 393.8)">n</text><text xml:space="preserve" font-family="LucidaGrande-Bold,Lucida Grande" font-weight="bold" font-size="12.0" fill="#A6AAA8" transform="matrix(1.00, 0.00, -0.00, -1.00, 126.0, 393.8)">i</text><text xml:space="preserve" font-family="LucidaGrande-Bold,Lucida Grande" font-weight="bold" font-size="12.0" fill="#A6AAA8" transform="matrix(1.00, 0.00, -0.00, -1.00, 129.9, 393.8)">n</text><text xml:space="preserve" font-family="LucidaGrande-Bold,Lucida Grande" font-weight="bold" font-size="12.0" fill="#A6AAA8" transform="matrix(1.00, 0.00, -0.00, -1.00, 137.8, 393.8)">g</text><text xml:space="preserve" font-family="LucidaGrande-Bold,Lucida Grande" font-weight="bold" font-size="12.0" fill="#A6AAA8" transform="matrix(1.00, 0.00, -0.00, -1.00, 145.7, 393.8)"> </text><text xml:space="preserve" font-family="LucidaGrande-Bold,Lucida Grande" font-weight="bold" font-size="12.0" fill="#A6AAA8" transform="matrix(1.00, 0.00, -0.00, -1.00, 149.6, 393.8)">i</text><text xml:space="preserve" font-family="LucidaGrande-Bold,Lucida Grande" font-weight="bold" font-size="12.0" fill="#A6AAA8" transform="matrix(1.00, 0.00, -0.00, -1.00, 153.5, 393.8)">t</text><text xml:space="preserve" font-family="LucidaGrande-Bold,Lucida Grande" font-weight="bold" font-size="12.0" fill="#A6AAA8" transform="matrix(1.00, 0.00, -0.00, -1.00, 158.4, 393.8)">s</text><text xml:space="preserve" font-family="LucidaGrande-Bold,Lucida Grande" font-weight="bold" font-size="12.0" fill="#A6AAA8" transform="matrix(1.00, 0.00, -0.00, -1.00, 165.2, 393.8)"> </text><text xml:space="preserve" font-family="LucidaGrande-Bold,Lucida Grande" font-weight="bold" font-size="12.0" fill="#A6AAA8" transform="matrix(1.00, 0.00, -0.00, -1.00, 169.1, 393.8)">c</text><text xml:space="preserve" font-family="LucidaGrande-Bold,Lucida Grande" font-weight="bold" font-size="12.0" fill="#A6AAA8" transform="matrix(1.00, 0.00, -0.00, -1.00, 175.5, 393.8)">h</text><text xml:space="preserve" font-family="LucidaGrande-Bold,Lucida Grande" font-weight="bold" font-size="12.0" fill="#A6AAA8" transform="matrix(1.00, 0.00, -0.00, -1.00, 183.4, 393.8)">i</text><text xml:space="preserve" font-family="LucidaGrande-Bold,Lucida Grande" font-weight="bold" font-size="12.0" fill="#A6AAA8" transform="matrix(1.00, 0.00, -0.00, -1.00, 187.3, 393.8)">l</text><text xml:space="preserve" font-family="LucidaGrande-Bold,Lucida Grande" font-weight="bold" font-size="12.0" fill="#A6AAA8" transform="matrix(1.00, 0.00, -0.00, -1.00, 191.2, 393.8)">d</text><text xml:space="preserve" font-family="LucidaGrande-Bold,Lucida Grande" font-weight="bold" font-size="12.0" fill="#A6AAA8" transform="matrix(1.00, 0.00, -0.00, -1.00, 199.2, 393.8)">r</text><text xml:space="preserve" font-family="LucidaGrande-Bold,Lucida Grande" font-weight="bold" font-size="12.0" fill="#A6AAA8" transform="matrix(1.00, 0.00, -0.00, -1.00, 204.6, 393.8)">e</text><text xml:space="preserve" font-family="LucidaGrande-Bold,Lucida Grande" font-weight="bold" font-size="12.0" fill="#A6AAA8" transform="matrix(1.00, 0.00, -0.00, -1.00, 211.6, 393.8)">n</text><text xml:space="preserve" font-family="LucidaGrande-Bold,Lucida Grande" font-weight="bold" font-size="12.0" fill="#A6AAA8" transform="matrix(1.00, 0.00, -0.00, -1.00, 219.5, 393.8)"> </text><text xml:space="preserve" font-family="LucidaGrande-Bold,Lucida Grande" font-weight="bold" font-size="12.0" fill="#A6AAA8" transform="matrix(1.00, 0.00, -0.00, -1.00, 223.4, 393.8)">f</text><text xml:space="preserve" font-family="LucidaGrande-Bold,Lucida Grande" font-weight="bold" font-size="12.0" fill="#A6AAA8" transform="matrix(1.00, 0.00, -0.00, -1.00, 228.4, 393.8)">o</text><text xml:space="preserve" font-family="LucidaGrande-Bold,Lucida Grande" font-weight="bold" font-size="12.0" fill="#A6AAA8" transform="matrix(1.00, 0.00, -0.00, -1.00, 236.1, 393.8)">r</text><text xml:space="preserve" font-family="LucidaGrande-Bold,Lucida Grande" font-weight="bold" font-size="12.0" fill="#A6AAA8" transform="matrix(1.00, 0.00, -0.00, -1.00, 241.5, 393.8)"> </text><text xml:space="preserve" font-family="LucidaGrande-Bold,Lucida Grande" font-weight="bold" font-size="12.0" fill="#A6AAA8" transform="matrix(1.00, 0.00, -0.00, -1.00, 245.5, 393.8)">a</text><text xml:space="preserve" font-family="LucidaGrande-Bold,Lucida Grande" font-weight="bold" font-size="12.0" fill="#A6AAA8" transform="matrix(1.00, 0.00, -0.00, -1.00, 252.5, 393.8)">n</text><text xml:space="preserve" font-family="LucidaGrande-Bold,Lucida Grande" font-weight="bold" font-size="12.0" fill="#A6AAA8" transform="matrix(1.00, 0.00, -0.00, -1.00, 260.4, 393.8)">g</text><text xml:space="preserve" font-family="LucidaGrande-Bold,Lucida Grande" font-weight="bold" font-size="12.0" fill="#A6AAA8" transform="matrix(1.00, 0.00, -0.00, -1.00, 268.3, 393.8)">u</text><text xml:space="preserve" font-family="LucidaGrande-Bold,Lucida Grande" font-weight="bold" font-size="12.0" fill="#A6AAA8" transform="matrix(1.00, 0.00, -0.00, -1.00, 276.2, 393.8)">l</text><text xml:space="preserve" font-family="LucidaGrande-Bold,Lucida Grande" font-weight="bold" font-size="12.0" fill="#A6AAA8" transform="matrix(1.00, 0.00, -0.00, -1.00, 280.1, 393.8)">a</text><text xml:space="preserve" font-family="LucidaGrande-Bold,Lucida Grande" font-weight="bold" font-size="12.0" fill="#A6AAA8" transform="matrix(1.00, 0.00, -0.00, -1.00, 287.1, 393.8)">r</text><text xml:space="preserve" font-family="LucidaGrande-Bold,Lucida Grande" font-weight="bold" font-size="12.0" fill="#A6AAA8" transform="matrix(1.00, 0.00, -0.00, -1.00, 292.6, 393.8)"> </text><text xml:space="preserve" font-family="LucidaGrande-Bold,Lucida Grande" font-weight="bold" font-size="12.0" fill="#A6AAA8" transform="matrix(1.00, 0.00, -0.00, -1.00, 296.5, 393.8)">e</text><text xml:space="preserve" font-family="LucidaGrande-Bold,Lucida Grande" font-weight="bold" font-size="12.0" fill="#A6AAA8" transform="matrix(1.00, 0.00, -0.00, -1.00, 303.5, 393.8)">l</text><text xml:space="preserve" font-family="LucidaGrande-Bold,Lucida Grande" font-weight="bold" font-size="12.0" fill="#A6AAA8" transform="matrix(1.00, 0.00, -0.00, -1.00, 307.4, 393.8)">e</text><text xml:space="preserve" font-family="LucidaGrande-Bold,Lucida Grande" font-weight="bold" font-size="12.0" fill="#A6AAA8" transform="matrix(1.00, 0.00, -0.00, -1.00, 314.5, 393.8)">m</text><text xml:space="preserve" font-family="LucidaGrande-Bold,Lucida Grande" font-weight="bold" font-size="12.0" fill="#A6AAA8" transform="matrix(1.00, 0.00, -0.00, -1.00, 326.1, 393.8)">e</text><text xml:space="preserve" font-family="LucidaGrande-Bold,Lucida Grande" font-weight="bold" font-size="12.0" fill="#A6AAA8" transform="matrix(1.00, 0.00, -0.00, -1.00, 333.1, 393.8)">n</text><text xml:space="preserve" font-family="LucidaGrande-Bold,Lucida Grande" font-weight="bold" font-size="12.0" fill="#A6AAA8" transform="matrix(1.00, 0.00, -0.00, -1.00, 341.0, 393.8)">t</text><text xml:space="preserve" font-family="LucidaGrande-Bold,Lucida Grande" font-weight="bold" font-size="12.0" fill="#A6AAA8" transform="matrix(1.00, 0.00, -0.00, -1.00, 345.9, 393.8)">s</text><text xml:space="preserve" font-family="LucidaGrande-Bold,Lucida Grande" font-weight="bold" font-size="12.0" fill="#A6AAA8" transform="matrix(1.00, 0.00, -0.00, -1.00, 72.0, 378.8)">-</text><text xml:space="preserve" font-family="LucidaGrande-Bold,Lucida Grande" font-weight="bold" font-size="12.0" fill="#A6AAA8" transform="matrix(1.00, 0.00, -0.00, -1.00, 90.0, 378.8)">a</text><text xml:space="preserve" font-family="LucidaGrande-Bold,Lucida Grande" font-weight="bold" font-size="12.0" fill="#A6AAA8" transform="matrix(1.00, 0.00, -0.00, -1.00, 97.1, 378.8)">n</text><text xml:space="preserve" font-family="LucidaGrande-Bold,Lucida Grande" font-weight="bold" font-size="12.0" fill="#A6AAA8" transform="matrix(1.00, 0.00, -0.00, -1.00, 104.9, 378.8)">g</text><text xml:space="preserve" font-family="LucidaGrande-Bold,Lucida Grande" font-weight="bold" font-size="12.0" fill="#A6AAA8" transform="matrix(1.00, 0.00, -0.00, -1.00, 112.8, 378.8)">u</text><text xml:space="preserve" font-family="LucidaGrande-Bold,Lucida Grande" font-weight="bold" font-size="12.0" fill="#A6AAA8" transform="matrix(1.00, 0.00, -0.00, -1.00, 120.7, 378.8)">l</text><text xml:space="preserve" font-family="LucidaGrande-Bold,Lucida Grande" font-weight="bold" font-size="12.0" fill="#A6AAA8" transform="matrix(1.00, 0.00, -0.00, -1.00, 124.6, 378.8)">a</text><text xml:space="preserve" font-family="LucidaGrande-Bold,Lucida Grande" font-weight="bold" font-size="12.0" fill="#A6AAA8" transform="matrix(1.00, 0.00, -0.00, -1.00, 131.7, 378.8)">r</text><text xml:space="preserve" font-family="LucidaGrande-Bold,Lucida Grande" font-weight="bold" font-size="12.0" fill="#A6AAA8" transform="matrix(1.00, 0.00, -0.00, -1.00, 137.1, 378.8)"> </text><text xml:space="preserve" font-family="LucidaGrande-Bold,Lucida Grande" font-weight="bold" font-size="12.0" fill="#A6AAA8" transform="matrix(1.00, 0.00, -0.00, -1.00, 141.1, 378.8)">w</text><text xml:space="preserve" font-family="LucidaGrande-Bold,Lucida Grande" font-weight="bold" font-size="12.0" fill="#A6AAA8" transform="matrix(1.00, 0.00, -0.00, -1.00, 151.4, 378.8)">i</text><text xml:space="preserve" font-family="LucidaGrande-Bold,Lucida Grande" font-weight="bold" font-size="12.0" fill="#A6AAA8" transform="matrix(1.00, 0.00, -0.00, -1.00, 155.3, 378.8)">l</text><text xml:space="preserve" font-family="LucidaGrande-Bold,Lucida Grande" font-weight="bold" font-size="12.0" fill="#A6AAA8" transform="matrix(1.00, 0.00, -0.00, -1.00, 159.2, 378.8)">l</text><text xml:space="preserve" font-family="LucidaGrande-Bold,Lucida Grande" font-weight="bold" font-size="12.0" fill="#A6AAA8" transform="matrix(1.00, 0.00, -0.00, -1.00, 163.1, 378.8)"> </text><text xml:space="preserve" font-family="LucidaGrande-Bold,Lucida Grande" font-weight="bold" font-size="12.0" fill="#A6AAA8" transform="matrix(1.00, 0.00, -0.00, -1.00, 167.1, 378.8)">r</text><text xml:space="preserve" font-family="LucidaGrande-Bold,Lucida Grande" font-weight="bold" font-size="12.0" fill="#A6AAA8" transform="matrix(1.00, 0.00, -0.00, -1.00, 172.5, 378.8)">e</text><text xml:space="preserve" font-family="LucidaGrande-Bold,Lucida Grande" font-weight="bold" font-size="12.0" fill="#A6AAA8" transform="matrix(1.00, 0.00, -0.00, -1.00, 179.6, 378.8)">j</text><text xml:space="preserve" font-family="LucidaGrande-Bold,Lucida Grande" font-weight="bold" font-size="12.0" fill="#A6AAA8" transform="matrix(1.00, 0.00, -0.00, -1.00, 183.6, 378.8)">e</text><text xml:space="preserve" font-family="LucidaGrande-Bold,Lucida Grande" font-weight="bold" font-size="12.0" fill="#A6AAA8" transform="matrix(1.00, 0.00, -0.00, -1.00, 190.6, 378.8)">c</text><text xml:space="preserve" font-family="LucidaGrande-Bold,Lucida Grande" font-weight="bold" font-size="12.0" fill="#A6AAA8" transform="matrix(1.00, 0.00, -0.00, -1.00, 197.0, 378.8)">t</text><text xml:space="preserve" font-family="LucidaGrande-Bold,Lucida Grande" font-weight="bold" font-size="12.0" fill="#A6AAA8" transform="matrix(1.00, 0.00, -0.00, -1.00, 201.9, 378.8)"> </text><text xml:space="preserve" font-family="LucidaGrande-Bold,Lucida Grande" font-weight="bold" font-size="12.0" fill="#A6AAA8" transform="matrix(1.00, 0.00, -0.00, -1.00, 205.8, 378.8)">a</text><text xml:space="preserve" font-family="LucidaGrande-Bold,Lucida Grande" font-weight="bold" font-size="12.0" fill="#A6AAA8" transform="matrix(1.00, 0.00, -0.00, -1.00, 212.9, 378.8)">n</text><text xml:space="preserve" font-family="LucidaGrande-Bold,Lucida Grande" font-weight="bold" font-size="12.0" fill="#A6AAA8" transform="matrix(1.00, 0.00, -0.00, -1.00, 220.7, 378.8)">y</text><text xml:space="preserve" font-family="LucidaGrande-Bold,Lucida Grande" font-weight="bold" font-size="12.0" fill="#A6AAA8" transform="matrix(1.00, 0.00, -0.00, -1.00, 227.7, 378.8)">t</text><text xml:space="preserve" font-family="LucidaGrande-Bold,Lucida Grande" font-weight="bold" font-size="12.0" fill="#A6AAA8" transform="matrix(1.00, 0.00, -0.00, -1.00, 232.6, 378.8)">h</text><text xml:space="preserve" font-family="LucidaGrande-Bold,Lucida Grande" font-weight="bold" font-size="12.0" fill="#A6AAA8" transform="matrix(1.00, 0.00, -0.00, -1.00, 240.5, 378.8)">i</text><text xml:space="preserve" font-family="LucidaGrande-Bold,Lucida Grande" font-weight="bold" font-size="12.0" fill="#A6AAA8" transform="matrix(1.00, 0.00, -0.00, -1.00, 244.4, 378.8)">n</text><text xml:space="preserve" font-family="LucidaGrande-Bold,Lucida Grande" font-weight="bold" font-size="12.0" fill="#A6AAA8" transform="matrix(1.00, 0.00, -0.00, -1.00, 252.3, 378.8)">g</text><text xml:space="preserve" font-family="LucidaGrande-Bold,Lucida Grande" font-weight="bold" font-size="12.0" fill="#A6AAA8" transform="matrix(1.00, 0.00, -0.00, -1.00, 260.2, 378.8)"> </text><text xml:space="preserve" font-family="LucidaGrande-Bold,Lucida Grande" font-weight="bold" font-size="12.0" fill="#A6AAA8" transform="matrix(1.00, 0.00, -0.00, -1.00, 264.1, 378.8)">o</text><text xml:space="preserve" font-family="LucidaGrande-Bold,Lucida Grande" font-weight="bold" font-size="12.0" fill="#A6AAA8" transform="matrix(1.00, 0.00, -0.00, -1.00, 271.8, 378.8)">u</text><text xml:space="preserve" font-family="LucidaGrande-Bold,Lucida Grande" font-weight="bold" font-size="12.0" fill="#A6AAA8" transform="matrix(1.00, 0.00, -0.00, -1.00, 279.7, 378.8)">t</text><text xml:space="preserve" font-family="LucidaGrande-Bold,Lucida Grande" font-weight="bold" font-size="12.0" fill="#A6AAA8" transform="matrix(1.00, 0.00, -0.00, -1.00, 284.5, 378.8)">s</text><text xml:space="preserve" font-family="LucidaGrande-Bold,Lucida Grande" font-weight="bold" font-size="12.0" fill="#A6AAA8" transform="matrix(1.00, 0.00, -0.00, -1.00, 291.3, 378.8)">i</text><text xml:space="preserve" font-family="LucidaGrande-Bold,Lucida Grande" font-weight="bold" font-size="12.0" fill="#A6AAA8" transform="matrix(1.00, 0.00, -0.00, -1.00, 295.2, 378.8)">d</text><text xml:space="preserve" font-family="LucidaGrande-Bold,Lucida Grande" font-weight="bold" font-size="12.0" fill="#A6AAA8" transform="matrix(1.00, 0.00, -0.00, -1.00, 303.2, 378.8)">e</text><text xml:space="preserve" font-family="LucidaGrande-Bold,Lucida Grande" font-weight="bold" font-size="12.0" fill="#A6AAA8" transform="matrix(1.00, 0.00, -0.00, -1.00, 310.2, 378.8)"> </text><text xml:space="preserve" font-family="LucidaGrande-Bold,Lucida Grande" font-weight="bold" font-size="12.0" fill="#A6AAA8" transform="matrix(1.00, 0.00, -0.00, -1.00, 314.1, 378.8)">i</text><text xml:space="preserve" font-family="LucidaGrande-Bold,Lucida Grande" font-weight="bold" font-size="12.0" fill="#A6AAA8" transform="matrix(1.00, 0.00, -0.00, -1.00, 318.1, 378.8)">t</text><text xml:space="preserve" font-family="LucidaGrande-Bold,Lucida Grande" font-weight="bold" font-size="12.0" fill="#A6AAA8" transform="matrix(1.00, 0.00, -0.00, -1.00, 322.9, 378.8)">.</text></g></g></g></g></g></svg>